<svg xmlns="http://www.w3.org/2000/svg" width="696.0mm" height="356.0mm" viewBox="0 0 696.0 356.0">
<g font-family="DejaVu Sans, Helvetica, Arial, sans-serif">
<path d="M0,0h696.0v356.0h-696.0z M3.0,3.0v350.0h690.0v-350.0z" fill="#F2836B" fill-opacity="0.35" fill-rule="evenodd"/>
<path d="M3.0,3.0h690.0v350.0h-690.0z M18.0,18.0v320.0h660.0v-320.0z" fill="#E0E0E0" fill-opacity="0.35" fill-rule="evenodd"/>
<rect x="3.0" y="3.0" width="690.0" height="350.0" fill="none" stroke="#000000" stroke-width="0.35"/>
<line x1="18.0" y1="3.0" x2="18.0" y2="353.0" stroke="#00AEEF" stroke-width="0.3" stroke-dasharray="3 1.5"/>
<line x1="308.0" y1="3.0" x2="308.0" y2="353.0" stroke="#00AEEF" stroke-width="0.3" stroke-dasharray="3 1.5"/>
<line x1="388.0" y1="3.0" x2="388.0" y2="353.0" stroke="#00AEEF" stroke-width="0.3" stroke-dasharray="3 1.5"/>
<line x1="678.0" y1="3.0" x2="678.0" y2="353.0" stroke="#00AEEF" stroke-width="0.3" stroke-dasharray="3 1.5"/>
<line x1="3.0" y1="18.0" x2="693.0" y2="18.0" stroke="#00AEEF" stroke-width="0.3" stroke-dasharray="3 1.5"/>
<line x1="3.0" y1="338.0" x2="693.0" y2="338.0" stroke="#00AEEF" stroke-width="0.3" stroke-dasharray="3 1.5"/>
<line x1="3.0" y1="29.0" x2="29.0" y2="3.0" stroke="#F7941D" stroke-width="0.3" stroke-dasharray="1.5 1"/>
<line x1="693.0" y1="29.0" x2="667.0" y2="3.0" stroke="#F7941D" stroke-width="0.3" stroke-dasharray="1.5 1"/>
<line x1="3.0" y1="327.0" x2="29.0" y2="353.0" stroke="#F7941D" stroke-width="0.3" stroke-dasharray="1.5 1"/>
<line x1="693.0" y1="327.0" x2="667.0" y2="353.0" stroke="#F7941D" stroke-width="0.3" stroke-dasharray="1.5 1"/>
<rect x="23.0" y="23.0" width="280.0" height="310.0" fill="none" stroke="#EC008C" stroke-width="0.25" stroke-dasharray="2 1.2"/>
<text x="163.0" y="172.0" font-size="11" font-weight="700" fill="#666666" fill-opacity="0.55" text-anchor="middle" dominant-baseline="middle">BACK COVER</text>
<text x="163.0" y="184.0" font-size="7" font-weight="400" fill="#666666" fill-opacity="0.55" text-anchor="middle" dominant-baseline="middle">290 × 320 mm</text>
<rect x="313.0" y="23.0" width="70.0" height="310.0" fill="none" stroke="#EC008C" stroke-width="0.25" stroke-dasharray="2 1.2"/>
<text x="348.0" y="178.0" font-size="7" font-weight="700" fill="#666666" fill-opacity="0.55" text-anchor="middle" dominant-baseline="middle" transform="rotate(-90 348.0 178.0)">SPINE  ·  80 × 320 mm</text>
<rect x="393.0" y="23.0" width="280.0" height="310.0" fill="none" stroke="#EC008C" stroke-width="0.25" stroke-dasharray="2 1.2"/>
<text x="533.0" y="172.0" font-size="11" font-weight="700" fill="#666666" fill-opacity="0.55" text-anchor="middle" dominant-baseline="middle">FRONT COVER</text>
<text x="533.0" y="184.0" font-size="7" font-weight="400" fill="#666666" fill-opacity="0.55" text-anchor="middle" dominant-baseline="middle">290 × 320 mm</text>
<text x="348.0" y="12.0" font-size="5" font-weight="400" fill="#666666" fill-opacity="0.55" text-anchor="middle" dominant-baseline="middle">TURN-IN 15 mm · wraps behind board · background only, no text</text>
<text x="30.0" y="302.0" font-size="3.2" fill="#666666">PRIME PRINTING · BINDER OUTER COVER · opens from the LEFT (English) · flat 690 × 350 mm + 3 mm bleed · 300 DPI · CMYK</text>
<rect x="30.0" y="305.8" width="6" height="2.6" fill="#F2836B" stroke="#F2836B" stroke-width="0.3"/>
<text x="38.0" y="308.0" font-size="3.2" fill="#666666">Bleed 3 mm</text>
<rect x="30.0" y="310.0" width="6" height="2.6" fill="#000000" stroke="#000000" stroke-width="0.3"/>
<text x="38.0" y="312.2" font-size="3.2" fill="#666666">Trim / cut line</text>
<rect x="30.0" y="314.2" width="6" height="2.6" fill="#00AEEF" stroke="#00AEEF" stroke-width="0.3"/>
<text x="38.0" y="316.4" font-size="3.2" fill="#666666">Fold line</text>
<rect x="30.0" y="318.40000000000003" width="6" height="2.6" fill="#EC008C" stroke="#EC008C" stroke-width="0.3"/>
<text x="38.0" y="320.6" font-size="3.2" fill="#666666">Safe area 5 mm</text>
<rect x="30.0" y="322.6" width="6" height="2.6" fill="#F7941D" stroke="#F7941D" stroke-width="0.3"/>
<text x="38.0" y="324.8" font-size="3.2" fill="#666666">Corner miter cut</text>
<rect x="30.0" y="326.8" width="6" height="2.6" fill="#E0E0E0" stroke="#E0E0E0" stroke-width="0.3"/>
<text x="38.0" y="329.0" font-size="3.2" fill="#666666">Turn-in (wrap)</text>
</g></svg>